<?xml version="1.0" encoding="iso-8859-1"?>
<!-- Generator: Adobe Illustrator 17.1.0, SVG Export Plug-In . SVG Version: 6.00 Build 0)  -->
<!DOCTYPE svg PUBLIC "-//W3C//DTD SVG 1.1//EN" "http://www.w3.org/Graphics/SVG/1.1/DTD/svg11.dtd">
<svg xmlns="http://www.w3.org/2000/svg" xmlns:xlink="http://www.w3.org/1999/xlink" version="1.1" id="Capa_1" x="0px" y="0px" viewBox="0 0 425.574 425.574" style="enable-background:new 0 0 425.574 425.574;" xml:space="preserve" width="512px" height="512px">
<path id="XMLID_140_" d="M155.078,119.119c0-4.971,4.029-9,9-9h3.656c4.971,0,9,4.029,9,9s-4.029,9-9,9h-3.656  C159.107,128.119,155.078,124.09,155.078,119.119z M174.908,229.24c0-4.971-4.029-9-9-9c-55.759,0-101.121-45.362-101.121-101.121  C64.787,63.361,110.149,18,165.908,18c55.758,0,101.12,45.361,101.12,101.119c0,4.971,4.029,9,9,9s9-4.029,9-9  C285.028,53.437,231.591,0,165.908,0C100.225,0,46.787,53.437,46.787,119.119c0,65.684,53.438,119.121,119.121,119.121  C170.879,238.24,174.908,234.211,174.908,229.24z M378.787,264.199v78.029c0,0.306-0.016,0.611-0.047,0.915  c-4.725,46.223-44.516,82.431-90.588,82.431h-33.802c-22.984,0-44.915-8.431-61.752-23.739  c-16.909-15.375-27.158-36.304-28.857-58.933c-0.017-0.225-0.025-0.449-0.025-0.674v-61.941c0-15.829,12.878-28.707,28.708-28.707  c3.823,0,7.427,0.698,10.705,1.984v-47.678c0-15.828,12.878-28.705,28.707-28.705c3.783,0,7.398,0.735,10.709,2.071v-1.014  c0-15.828,12.878-28.705,28.707-28.705c15.828,0,28.706,12.877,28.706,28.705v9.056c3.31-1.335,6.924-2.07,10.706-2.07  c15.83,0,28.708,12.877,28.708,28.705v23.634c3.31-1.335,6.925-2.07,10.707-2.07C365.909,235.493,378.787,248.371,378.787,264.199z   M360.787,264.199c0-5.903-4.804-10.706-10.708-10.706s-10.707,4.803-10.707,10.706v59.933c0,4.971-4.029,9-9,9s-9-4.029-9-9V213.93  c0-5.902-4.804-10.705-10.708-10.705c-5.903,0-10.706,4.803-10.706,10.705v94.115c0,4.971-4.029,9-9,9s-9-4.029-9-9V213.93  c0-0.026,0-0.052,0-0.078c0-0.014,0-0.028,0-0.043v-35.569c0-5.903-4.803-10.705-10.706-10.705c-5.904,0-10.707,4.802-10.707,10.705  v102.158c0,4.971-4.029,9-9,9s-9-4.029-9-9v-74.511c0-5.902-4.804-10.705-10.709-10.705c-5.904,0-10.707,4.803-10.707,10.705  v136.342c0,4.971-4.029,9-9,9s-9-4.029-9-9v-60.895c0-5.661-3.35-11.754-10.705-11.754c-5.904,0-10.708,4.803-10.708,10.707v61.594  c2.942,36.865,34.782,65.693,72.635,65.693h33.802c36.812,0,68.63-28.874,72.635-65.818V264.199z M156.908,193.427v-9.633  c-28.817-3.989-51.685-26.856-55.674-55.675h-9.632c-4.971,0-9-4.029-9-9s4.029-9,9-9h9.632  c3.989-28.817,26.856-51.684,55.674-55.673v-9.633c0-4.971,4.029-9,9-9s9,4.029,9,9v9.633c28.817,3.989,51.685,26.855,55.674,55.673  h9.632c4.971,0,9,4.029,9,9s-4.029,9-9,9h-9.632c-3.989,28.818-26.856,51.686-55.674,55.675v9.633c0,4.971-4.029,9-9,9  S156.908,198.397,156.908,193.427z M156.908,165.553v-12.404c0-4.971,4.029-9,9-9s9,4.029,9,9v12.404  c18.873-3.65,33.782-18.56,37.433-37.434h-12.405c-4.971,0-9-4.029-9-9s4.029-9,9-9h12.405c-3.65-18.873-18.56-33.781-37.433-37.432  v12.404c0,4.971-4.029,9-9,9s-9-4.029-9-9V72.688c-18.873,3.65-33.782,18.559-37.433,37.432h12.403c4.971,0,9,4.029,9,9  s-4.029,9-9,9h-12.403C123.126,146.993,138.035,161.902,156.908,165.553z" fill="#D80027"/>
<g>
</g>
<g>
</g>
<g>
</g>
<g>
</g>
<g>
</g>
<g>
</g>
<g>
</g>
<g>
</g>
<g>
</g>
<g>
</g>
<g>
</g>
<g>
</g>
<g>
</g>
<g>
</g>
<g>
</g>
</svg>
