<?xml version="1.0" encoding="iso-8859-1"?>
<!-- Generator: Adobe Illustrator 19.0.0, SVG Export Plug-In . SVG Version: 6.00 Build 0)  -->
<svg version="1.1" id="Capa_1" xmlns="http://www.w3.org/2000/svg" xmlns:xlink="http://www.w3.org/1999/xlink" x="0px" y="0px"
	 viewBox="0 0 512 512" style="enable-background:new 0 0 512 512;" xml:space="preserve">
<g>
	<path style="fill:#98A9D5;" d="M128,25.6L68.267,85.333v204.8c0.014,4.707,3.826,8.519,8.533,8.533H256V25.6H128z"/>
	<path style="fill:#687492;" d="M128,25.6v51.2c-0.014,4.707-3.826,8.519-8.533,8.533h-51.2L128,25.6z"/>
	<path style="fill:#98A9D5;" d="M384,213.333H256V486.4h179.2c4.707-0.014,8.519-3.826,8.533-8.533v-204.8L384,213.333z"/>
	<path style="fill:#687492;" d="M443.733,273.067h-51.2c-4.707-0.014-8.519-3.826-8.533-8.533v-51.2L443.733,273.067z"/>
	<path style="fill:#3A3E48;" d="M256,512c-4.713,0-8.533-3.82-8.533-8.533V8.533C247.467,3.821,251.287,0,256,0
		c4.713,0,8.533,3.821,8.533,8.533v494.933C264.533,508.18,260.713,512,256,512z"/>
	<g>
		<path style="fill:#9C63AD;" d="M127.996,213.338c-2.887-0.007-5.575-1.471-7.147-3.892c-1.572-2.421-1.814-5.473-0.645-8.112
			l34.133-76.8c1.239-2.785,3.869-4.698,6.9-5.018c3.031-0.32,6.003,1.001,7.796,3.467s2.134,5.7,0.896,8.485l-34.133,76.8
			C134.426,211.35,131.369,213.337,127.996,213.338z"/>
		<path style="fill:#9C63AD;" d="M196.271,213.338c-3.374,0.001-6.431-1.987-7.8-5.071l-34.133-76.8
			c-1.239-2.785-0.897-6.02,0.896-8.485c1.793-2.465,4.765-3.787,7.796-3.467c3.031,0.32,5.662,2.233,6.9,5.018l34.133,76.8
			c1.169,2.639,0.927,5.691-0.645,8.112C201.846,211.867,199.158,213.331,196.271,213.338z"/>
		<path style="fill:#9C63AD;" d="M184.917,187.733H139.35c-4.713,0-8.533-3.82-8.533-8.533s3.82-8.533,8.533-8.533h45.567
			c4.713,0,8.533,3.821,8.533,8.533S189.63,187.733,184.917,187.733L184.917,187.733z"/>
		<path style="fill:#9C63AD;" d="M358.4,366.933h-34.133c-4.713,0-8.533-3.82-8.533-8.533v-34.133c0-4.713,3.821-8.533,8.533-8.533
			H358.4c14.138,0,25.6,11.462,25.6,25.6C384,355.472,372.538,366.933,358.4,366.933z M332.8,349.867h25.6
			c4.713,0,8.533-3.821,8.533-8.533s-3.82-8.533-8.533-8.533h-25.6V349.867z"/>
		<path style="fill:#9C63AD;" d="M354.133,409.6h-29.867c-4.713,0-8.533-3.821-8.533-8.533V358.4c0-4.713,3.821-8.533,8.533-8.533
			h29.867c16.495,0,29.867,13.372,29.867,29.867C384,396.228,370.628,409.6,354.133,409.6L354.133,409.6z M332.8,392.533h21.333
			c7.069,0,12.8-5.731,12.8-12.8c0-7.069-5.731-12.8-12.8-12.8H332.8V392.533z"/>
	</g>
</g>
<g>
</g>
<g>
</g>
<g>
</g>
<g>
</g>
<g>
</g>
<g>
</g>
<g>
</g>
<g>
</g>
<g>
</g>
<g>
</g>
<g>
</g>
<g>
</g>
<g>
</g>
<g>
</g>
<g>
</g>
</svg>
